<mxfile host="app.diagrams.net" modified="2022-08-19T09:29:18.619Z" agent="5.0 (Windows NT 10.0; Win64; x64) AppleWebKit/537.36 (KHTML, like Gecko) Chrome/104.0.0.0 Safari/537.36" etag="LN0_lJVMVfgc52YlKg5n" version="20.2.4" type="github">
  <diagram id="mTGUwjc29l9EW-HO1A5x" name="Page-1">
    <mxGraphModel dx="1038" dy="547" grid="1" gridSize="10" guides="1" tooltips="1" connect="1" arrows="1" fold="1" page="1" pageScale="1" pageWidth="850" pageHeight="1100" math="0" shadow="0">
      <root>
        <mxCell id="0" />
        <mxCell id="1" parent="0" />
        <mxCell id="WPaSIzla7MqYUy2YTO5--1" value="&lt;font style=&quot;font-size: 24px;&quot;&gt;&lt;b style=&quot;font-size: 24px&quot;&gt;0&lt;/b&gt;&lt;/font&gt;" style="ellipse;whiteSpace=wrap;html=1;aspect=fixed;strokeWidth=3;fontSize=24;" vertex="1" parent="1">
          <mxGeometry x="160" y="80" width="40" height="40" as="geometry" />
        </mxCell>
        <mxCell id="WPaSIzla7MqYUy2YTO5--2" value="&lt;font style=&quot;font-size: 24px;&quot;&gt;&lt;b style=&quot;font-size: 24px&quot;&gt;6&lt;/b&gt;&lt;/font&gt;" style="ellipse;whiteSpace=wrap;html=1;aspect=fixed;strokeWidth=3;fontSize=24;" vertex="1" parent="1">
          <mxGeometry x="290" y="80" width="40" height="40" as="geometry" />
        </mxCell>
        <mxCell id="WPaSIzla7MqYUy2YTO5--5" value="&lt;b&gt;2&lt;/b&gt;" style="ellipse;whiteSpace=wrap;html=1;aspect=fixed;strokeWidth=3;fontSize=24;" vertex="1" parent="1">
          <mxGeometry x="160" y="190" width="40" height="40" as="geometry" />
        </mxCell>
        <mxCell id="WPaSIzla7MqYUy2YTO5--6" value="&lt;b style=&quot;font-size: 24px;&quot;&gt;3&lt;/b&gt;" style="ellipse;whiteSpace=wrap;html=1;aspect=fixed;strokeWidth=3;fontSize=24;" vertex="1" parent="1">
          <mxGeometry x="160" y="280" width="40" height="40" as="geometry" />
        </mxCell>
        <mxCell id="WPaSIzla7MqYUy2YTO5--7" value="&lt;b style=&quot;font-size: 24px;&quot;&gt;2&lt;/b&gt;" style="ellipse;whiteSpace=wrap;html=1;aspect=fixed;strokeWidth=3;fontSize=24;" vertex="1" parent="1">
          <mxGeometry x="290" y="280" width="40" height="40" as="geometry" />
        </mxCell>
        <mxCell id="WPaSIzla7MqYUy2YTO5--9" value="&lt;b style=&quot;font-size: 24px;&quot;&gt;1&lt;/b&gt;" style="ellipse;whiteSpace=wrap;html=1;aspect=fixed;strokeWidth=3;fontSize=24;" vertex="1" parent="1">
          <mxGeometry x="290" y="190" width="40" height="40" as="geometry" />
        </mxCell>
        <mxCell id="WPaSIzla7MqYUy2YTO5--13" value="&lt;b style=&quot;font-size: 24px;&quot;&gt;4&lt;/b&gt;" style="ellipse;whiteSpace=wrap;html=1;aspect=fixed;strokeWidth=3;fontSize=24;" vertex="1" parent="1">
          <mxGeometry x="160" y="370" width="40" height="40" as="geometry" />
        </mxCell>
        <mxCell id="WPaSIzla7MqYUy2YTO5--14" value="&lt;b style=&quot;font-size: 24px;&quot;&gt;3&lt;/b&gt;" style="ellipse;whiteSpace=wrap;html=1;aspect=fixed;strokeWidth=3;fontSize=24;" vertex="1" parent="1">
          <mxGeometry x="290" y="370" width="40" height="40" as="geometry" />
        </mxCell>
        <mxCell id="WPaSIzla7MqYUy2YTO5--17" value="&lt;b style=&quot;font-size: 24px;&quot;&gt;5&lt;/b&gt;" style="ellipse;whiteSpace=wrap;html=1;aspect=fixed;strokeWidth=3;fontSize=24;" vertex="1" parent="1">
          <mxGeometry x="160" y="460" width="40" height="40" as="geometry" />
        </mxCell>
        <mxCell id="WPaSIzla7MqYUy2YTO5--18" value="&lt;b&gt;4&lt;/b&gt;" style="ellipse;whiteSpace=wrap;html=1;aspect=fixed;strokeWidth=3;fontSize=24;" vertex="1" parent="1">
          <mxGeometry x="290" y="460" width="40" height="40" as="geometry" />
        </mxCell>
        <mxCell id="WPaSIzla7MqYUy2YTO5--21" value="" style="curved=1;endArrow=openAsync;html=1;rounded=0;entryX=0;entryY=1;entryDx=0;entryDy=0;exitX=0;exitY=0.5;exitDx=0;exitDy=0;endFill=0;strokeWidth=3;fontSize=24;" edge="1" parent="1" source="WPaSIzla7MqYUy2YTO5--6" target="WPaSIzla7MqYUy2YTO5--1">
          <mxGeometry width="50" height="50" relative="1" as="geometry">
            <mxPoint x="360" y="310" as="sourcePoint" />
            <mxPoint x="300" y="170" as="targetPoint" />
            <Array as="points">
              <mxPoint x="120" y="190" />
            </Array>
          </mxGeometry>
        </mxCell>
        <mxCell id="WPaSIzla7MqYUy2YTO5--22" value="" style="curved=1;endArrow=openAsync;html=1;rounded=0;entryX=0;entryY=0.5;entryDx=0;entryDy=0;exitX=0;exitY=0.5;exitDx=0;exitDy=0;endFill=0;strokeWidth=3;fontSize=24;" edge="1" parent="1" source="WPaSIzla7MqYUy2YTO5--7" target="WPaSIzla7MqYUy2YTO5--2">
          <mxGeometry width="50" height="50" relative="1" as="geometry">
            <mxPoint x="170" y="310" as="sourcePoint" />
            <mxPoint x="175.85786437626894" y="124.14213562373106" as="targetPoint" />
            <Array as="points">
              <mxPoint x="240" y="210" />
            </Array>
          </mxGeometry>
        </mxCell>
        <mxCell id="WPaSIzla7MqYUy2YTO5--23" value="" style="curved=1;endArrow=openAsync;html=1;rounded=0;entryX=0;entryY=0.5;entryDx=0;entryDy=0;exitX=0;exitY=0.5;exitDx=0;exitDy=0;endFill=0;strokeWidth=3;fontSize=24;" edge="1" parent="1" source="WPaSIzla7MqYUy2YTO5--8">
          <mxGeometry width="50" height="50" relative="1" as="geometry">
            <mxPoint x="300" y="310" as="sourcePoint" />
            <mxPoint x="420" y="100" as="targetPoint" />
            <Array as="points">
              <mxPoint x="360" y="210" />
            </Array>
          </mxGeometry>
        </mxCell>
        <mxCell id="WPaSIzla7MqYUy2YTO5--25" value="" style="curved=1;endArrow=openAsync;html=1;rounded=0;entryX=0;entryY=1;entryDx=0;entryDy=0;exitX=0;exitY=0.5;exitDx=0;exitDy=0;endFill=0;strokeWidth=3;fontSize=24;" edge="1" parent="1" source="WPaSIzla7MqYUy2YTO5--13" target="WPaSIzla7MqYUy2YTO5--1">
          <mxGeometry width="50" height="50" relative="1" as="geometry">
            <mxPoint x="320" y="330" as="sourcePoint" />
            <mxPoint x="320" y="130" as="targetPoint" />
            <Array as="points">
              <mxPoint x="30" y="230" />
            </Array>
          </mxGeometry>
        </mxCell>
        <mxCell id="WPaSIzla7MqYUy2YTO5--26" value="" style="curved=1;endArrow=openAsync;html=1;rounded=0;exitX=0;exitY=0.5;exitDx=0;exitDy=0;endFill=0;strokeWidth=3;fontSize=24;" edge="1" parent="1" source="WPaSIzla7MqYUy2YTO5--14">
          <mxGeometry width="50" height="50" relative="1" as="geometry">
            <mxPoint x="170" y="400" as="sourcePoint" />
            <mxPoint x="290" y="100" as="targetPoint" />
            <Array as="points">
              <mxPoint x="190" y="250" />
            </Array>
          </mxGeometry>
        </mxCell>
        <mxCell id="WPaSIzla7MqYUy2YTO5--27" value="" style="curved=1;endArrow=openAsync;html=1;rounded=0;exitX=0;exitY=0.5;exitDx=0;exitDy=0;endFill=0;entryX=0;entryY=1;entryDx=0;entryDy=0;strokeWidth=3;fontSize=24;" edge="1" parent="1" source="WPaSIzla7MqYUy2YTO5--17" target="WPaSIzla7MqYUy2YTO5--1">
          <mxGeometry width="50" height="50" relative="1" as="geometry">
            <mxPoint x="180" y="410" as="sourcePoint" />
            <mxPoint x="160" y="120" as="targetPoint" />
            <Array as="points">
              <mxPoint x="-20" y="250" />
            </Array>
          </mxGeometry>
        </mxCell>
        <mxCell id="WPaSIzla7MqYUy2YTO5--29" value="" style="curved=1;endArrow=openAsync;html=1;rounded=0;endFill=0;strokeWidth=3;fontSize=24;" edge="1" parent="1">
          <mxGeometry width="50" height="50" relative="1" as="geometry">
            <mxPoint x="288" y="480" as="sourcePoint" />
            <mxPoint x="290" y="100" as="targetPoint" />
            <Array as="points">
              <mxPoint x="170" y="280" />
            </Array>
          </mxGeometry>
        </mxCell>
        <mxCell id="WPaSIzla7MqYUy2YTO5--31" value="" style="endArrow=none;html=1;rounded=0;exitX=0.5;exitY=1;exitDx=0;exitDy=0;entryX=0.5;entryY=0;entryDx=0;entryDy=0;strokeWidth=3;fontSize=24;" edge="1" parent="1" source="WPaSIzla7MqYUy2YTO5--1" target="WPaSIzla7MqYUy2YTO5--5">
          <mxGeometry width="50" height="50" relative="1" as="geometry">
            <mxPoint x="210" y="130" as="sourcePoint" />
            <mxPoint x="410" y="260" as="targetPoint" />
          </mxGeometry>
        </mxCell>
        <mxCell id="WPaSIzla7MqYUy2YTO5--32" value="" style="endArrow=none;html=1;rounded=0;exitX=1;exitY=0.5;exitDx=0;exitDy=0;entryX=0;entryY=0.5;entryDx=0;entryDy=0;strokeWidth=3;fontSize=24;" edge="1" parent="1" source="WPaSIzla7MqYUy2YTO5--1" target="WPaSIzla7MqYUy2YTO5--2">
          <mxGeometry width="50" height="50" relative="1" as="geometry">
            <mxPoint x="190" y="130" as="sourcePoint" />
            <mxPoint x="190" y="200" as="targetPoint" />
          </mxGeometry>
        </mxCell>
        <mxCell id="WPaSIzla7MqYUy2YTO5--33" value="" style="endArrow=none;html=1;rounded=0;exitX=0.5;exitY=1;exitDx=0;exitDy=0;entryX=0.5;entryY=0;entryDx=0;entryDy=0;strokeWidth=3;fontSize=24;" edge="1" parent="1" source="WPaSIzla7MqYUy2YTO5--2" target="WPaSIzla7MqYUy2YTO5--9">
          <mxGeometry width="50" height="50" relative="1" as="geometry">
            <mxPoint x="200" y="140" as="sourcePoint" />
            <mxPoint x="200" y="210" as="targetPoint" />
          </mxGeometry>
        </mxCell>
        <mxCell id="WPaSIzla7MqYUy2YTO5--40" value="" style="curved=1;endArrow=openAsync;html=1;rounded=0;entryX=0;entryY=0.5;entryDx=0;entryDy=0;exitX=0;exitY=0.5;exitDx=0;exitDy=0;endFill=0;strokeWidth=3;fontSize=24;" edge="1" parent="1" source="WPaSIzla7MqYUy2YTO5--15">
          <mxGeometry width="50" height="50" relative="1" as="geometry">
            <mxPoint x="430" y="310" as="sourcePoint" />
            <mxPoint x="420" y="100" as="targetPoint" />
            <Array as="points">
              <mxPoint x="340" y="230" />
            </Array>
          </mxGeometry>
        </mxCell>
      </root>
    </mxGraphModel>
  </diagram>
</mxfile>
